<?xml version="1.0" encoding="utf-8"?>
<!-- Generator: Adobe Illustrator 15.1.0, SVG Export Plug-In . SVG Version: 6.00 Build 0)  -->
<!DOCTYPE svg PUBLIC "-//W3C//DTD SVG 1.1//EN" "http://www.w3.org/Graphics/SVG/1.1/DTD/svg11.dtd">
<svg version="1.1" id="Livello_1" xmlns="http://www.w3.org/2000/svg" xmlns:xlink="http://www.w3.org/1999/xlink" x="0px" y="0px"
	 width="800px" height="600px" viewBox="0 0 800 600" enable-background="new 0 0 800 600" xml:space="preserve">
<path fill="none" stroke="#000000" stroke-miterlimit="10" d="M309.457,434.623C177.963,398.678,81.313,278.361,81.313,135.467"/>
<path fill="none" stroke="#000000" stroke-miterlimit="10" d="M701.515,135.467c0,159.114-119.841,290.24-274.183,308.044"/>
<path fill="none" stroke="#000000" stroke-miterlimit="10" d="M345.167,372.16c-111.439-21.578-195.589-119.671-195.589-237.418"/>
<path fill="none" stroke="#000000" stroke-miterlimit="10" d="M633.248,134.742c0,122.096-90.476,223.051-208.037,239.491"/>
<path fill="none" stroke="#000000" stroke-miterlimit="10" d="M345.628,326.922c-86.613-20.639-151.023-98.522-151.023-191.455"/>
<path fill="none" stroke="#000000" stroke-miterlimit="10" d="M588.223,135.467c0,97.26-70.556,178.046-163.276,193.96"/>
<line fill="none" stroke="#000000" stroke-miterlimit="10" x1="442.974" y1="135.467" x2="734.195" y2="135.467"/>
<line fill="none" stroke="#000000" stroke-miterlimit="10" x1="53.716" y1="135.467" x2="351.469" y2="135.467"/>
<line fill="none" stroke="#000000" stroke-miterlimit="10" x1="287.198" y1="190.843" x2="351.469" y2="190.843"/>
<line fill="none" stroke="#000000" stroke-miterlimit="10" x1="351.469" y1="190.843" x2="351.469" y2="135.467"/>
<line fill="none" stroke="#000000" stroke-miterlimit="10" x1="287.198" y1="190.843" x2="287.198" y2="135.467"/>
<line fill="none" stroke="#000000" stroke-miterlimit="10" x1="442.974" y1="190.843" x2="442.974" y2="135.467"/>
<line fill="none" stroke="#000000" stroke-miterlimit="10" x1="442.974" y1="190.843" x2="506.701" y2="190.843"/>
<line fill="none" stroke="#000000" stroke-miterlimit="10" x1="506.701" y1="190.843" x2="506.701" y2="135.467"/>
</svg>
