<?xml version="1.0" encoding="utf-8"?>
<!-- Generator: Adobe Illustrator 15.1.0, SVG Export Plug-In . SVG Version: 6.00 Build 0)  -->
<!DOCTYPE svg PUBLIC "-//W3C//DTD SVG 1.1//EN" "http://www.w3.org/Graphics/SVG/1.1/DTD/svg11.dtd">
<svg version="1.1" id="Livello_1" xmlns="http://www.w3.org/2000/svg" xmlns:xlink="http://www.w3.org/1999/xlink" x="0px" y="0px"
	 width="800px" height="600px" viewBox="0 0 800 600" enable-background="new 0 0 800 600" xml:space="preserve">
<path fill="none" stroke="#000000" stroke-miterlimit="10" d="M308.675,389.458C171.486,349.745,71.182,223.186,71.182,73.196"/>
<path fill="none" stroke="#000000" stroke-miterlimit="10" d="M729.591,73.196c0,163.727-119.526,299.542-276.084,324.939"/>
<path fill="none" stroke="#000000" stroke-miterlimit="10" d="M655.216,103.822c-15.48,126.979-123.668,225.337-254.831,225.337
	c-131.037,0-239.145-98.168-254.789-224.976"/>
<path fill="none" stroke="#000000" stroke-miterlimit="10" d="M228.914,192.603c-23.613-33.844-37.461-75.007-37.461-119.406"/>
<path fill="none" stroke="#000000" stroke-miterlimit="10" d="M346.35,275.072c-36.616-9.775-69.27-29.246-95.049-55.496"/>
<path fill="none" stroke="#000000" stroke-miterlimit="10" d="M504.929,254.13c-27.802,16.1-59.658,25.975-93.661,27.719"/>
<path fill="none" stroke="#000000" stroke-miterlimit="10" d="M599.914,135.352c-11.217,36.051-31.934,67.912-59.228,92.658"/>
<line fill="none" stroke="#000000" stroke-miterlimit="10" x1="440.089" y1="73.196" x2="763.706" y2="73.196"/>
<line fill="none" stroke="#000000" stroke-miterlimit="10" x1="41.305" y1="73.196" x2="357.979" y2="73.196"/>
<line fill="none" stroke="#000000" stroke-miterlimit="10" x1="272.98" y1="105.046" x2="272.98" y2="130.249"/>
<line fill="none" stroke="#000000" stroke-miterlimit="10" x1="272.98" y1="130.249" x2="522.197" y2="130.249"/>
<line fill="none" stroke="#000000" stroke-miterlimit="10" x1="522.197" y1="130.249" x2="522.197" y2="105.046"/>
</svg>
