<?xml version="1.0" encoding="utf-8"?>
<!-- Generator: Adobe Illustrator 15.1.0, SVG Export Plug-In . SVG Version: 6.00 Build 0)  -->
<!DOCTYPE svg PUBLIC "-//W3C//DTD SVG 1.1//EN" "http://www.w3.org/Graphics/SVG/1.1/DTD/svg11.dtd">
<svg version="1.1" id="Livello_1" xmlns="http://www.w3.org/2000/svg" xmlns:xlink="http://www.w3.org/1999/xlink" x="0px" y="0px"
	 width="800px" height="600px" viewBox="0 0 800 600" enable-background="new 0 0 800 600" xml:space="preserve">
<path fill="none" stroke="#000000" stroke-miterlimit="10" d="M260.632,405.193C141.223,355.063,57.36,237.032,57.36,99.412"/>
<path fill="none" stroke="#000000" stroke-miterlimit="10" d="M720.334,99.412c0,153.713-104.625,282.988-246.543,320.501"/>
<path fill="none" stroke="#000000" stroke-miterlimit="10" d="M339.181,352.383c-119.013-23.162-208.848-127.96-208.848-253.746"/>
<path fill="none" stroke="#000000" stroke-miterlimit="10" d="M647.359,98.637c0,122.593-85.325,225.248-199.83,251.821"/>
<path fill="none" stroke="#000000" stroke-miterlimit="10" d="M599.229,99.412c0,116.19-94.195,210.381-210.383,210.381
	c-116.19,0-210.38-94.191-210.38-210.381"/>
<line fill="none" stroke="#000000" stroke-miterlimit="10" x1="428.825" y1="99.412" x2="754.687" y2="99.412"/>
<line fill="none" stroke="#000000" stroke-miterlimit="10" x1="27.277" y1="99.412" x2="346.147" y2="99.412"/>
<line fill="none" stroke="#000000" stroke-miterlimit="10" x1="257.647" y1="163.847" x2="353.716" y2="163.847"/>
<line fill="none" stroke="#000000" stroke-miterlimit="10" x1="435.229" y1="163.847" x2="528.388" y2="163.847"/>
</svg>
