<?xml version="1.0" encoding="utf-8"?>
<!-- Generator: Adobe Illustrator 15.1.0, SVG Export Plug-In . SVG Version: 6.00 Build 0)  -->
<!DOCTYPE svg PUBLIC "-//W3C//DTD SVG 1.1//EN" "http://www.w3.org/Graphics/SVG/1.1/DTD/svg11.dtd">
<svg version="1.1" id="Livello_1" xmlns="http://www.w3.org/2000/svg" xmlns:xlink="http://www.w3.org/1999/xlink" x="0px" y="0px"
	 width="800px" height="600px" viewBox="0 0 800 600" enable-background="new 0 0 800 600" xml:space="preserve">
<rect x="57.5" y="22.5" fill="none" stroke="#000000" stroke-miterlimit="10" width="684" height="555"/>
<path fill="none" stroke="#000000" stroke-miterlimit="10" d="M639.777,388.721c0,59.207-109.487,107.203-244.545,107.203
	c-135.059,0-244.545-47.996-244.545-107.203"/>
<line stroke="#000000" stroke-miterlimit="10" x1="151" y1="420.5" x2="648" y2="420.5"/>
<path fill="none" stroke="#000000" stroke-miterlimit="10" d="M640.354,231.491c0-75.116-109.487-136.009-244.545-136.009
	c-135.059,0-244.545,60.893-244.545,136.009"/>
<line stroke="#000000" stroke-miterlimit="10" x1="152" y1="199.5" x2="648" y2="199.5"/>
<line fill="none" stroke="#000000" stroke-miterlimit="10" x1="638.872" y1="364.236" x2="395.232" y2="319.35"/>
<line fill="none" stroke="#000000" stroke-miterlimit="10" x1="395.232" y1="319.35" x2="151.486" y2="364.236"/>
<line fill="none" stroke="#000000" stroke-miterlimit="10" x1="638.296" y1="266.874" x2="394.656" y2="221.988"/>
<line fill="none" stroke="#000000" stroke-miterlimit="10" x1="394.656" y1="221.988" x2="150.91" y2="266.874"/>
<circle fill="none" stroke="#000000" stroke-miterlimit="10" cx="240.843" cy="394.527" r="17.282"/>
<circle fill="none" stroke="#000000" stroke-miterlimit="10" cx="562.31" cy="394.527" r="17.283"/>
<circle fill="none" stroke="#000000" stroke-miterlimit="10" cx="395.24" cy="291.404" r="17.283"/>
<line fill="none" stroke="#000000" stroke-miterlimit="10" x1="151" y1="266.5" x2="638" y2="266.5"/>
<line fill="none" stroke="#000000" stroke-miterlimit="10" x1="151" y1="364.5" x2="639" y2="364.5"/>
</svg>
