<?xml version="1.0" encoding="utf-8"?>
<!-- Generator: Adobe Illustrator 15.1.0, SVG Export Plug-In . SVG Version: 6.00 Build 0)  -->
<!DOCTYPE svg PUBLIC "-//W3C//DTD SVG 1.1//EN" "http://www.w3.org/Graphics/SVG/1.1/DTD/svg11.dtd">
<svg version="1.1" id="Livello_1" xmlns="http://www.w3.org/2000/svg" xmlns:xlink="http://www.w3.org/1999/xlink" x="0px" y="0px"
	 width="800px" height="600px" viewBox="0 0 800 600" enable-background="new 0 0 800 600" xml:space="preserve">
<polyline fill="none" stroke="#000000" stroke-width="0.25" stroke-miterlimit="10" points="430.75,179 430.75,308 288,308 288,179 
	"/>
<polyline fill="none" stroke="#000000" stroke-width="0.25" stroke-miterlimit="10" points="282.833,179.014 430.75,179 430.75,308 
	288,308 288,179 "/>
<line fill="none" stroke="#000000" stroke-width="0.25" stroke-miterlimit="10" x1="299.803" y1="229.727" x2="323.284" y2="189.484"/>
<line fill="none" stroke="#000000" stroke-width="0.25" stroke-miterlimit="10" x1="325.173" y1="240.361" x2="346.25" y2="204.237"/>
<line fill="none" stroke="#000000" stroke-width="0.25" stroke-miterlimit="10" x1="325.173" y1="243.5" x2="346.25" y2="279.625"/>
<line fill="none" stroke="#000000" stroke-width="0.25" stroke-miterlimit="10" x1="299.895" y1="255.8" x2="323.27" y2="295.861"/>
<line fill="none" stroke="#000000" stroke-width="0.25" stroke-miterlimit="10" x1="421.25" y1="229.651" x2="397.954" y2="189.725"/>
<line fill="none" stroke="#000000" stroke-width="0.25" stroke-miterlimit="10" x1="395.973" y1="240.444" x2="374.896" y2="204.32"/>
<line fill="none" stroke="#000000" stroke-width="0.25" stroke-miterlimit="10" x1="395.973" y1="243.583" x2="374.896" y2="279.708"/>
<line fill="none" stroke="#000000" stroke-width="0.25" stroke-miterlimit="10" x1="421.66" y1="255.181" x2="397.466" y2="296.646"/>
<line fill="none" stroke="#000000" stroke-width="0.25" stroke-miterlimit="10" x1="398.109" y1="293.972" x2="398.109" y2="308"/>
<line fill="none" stroke="#000000" stroke-width="0.25" stroke-miterlimit="10" x1="323.036" y1="293.878" x2="323.036" y2="308"/>
<line fill="none" stroke="#000000" stroke-width="0.25" stroke-miterlimit="10" x1="322.958" y1="191.324" x2="322.958" y2="177.993"/>
<line fill="none" stroke="#000000" stroke-width="0.25" stroke-miterlimit="10" x1="398.188" y1="191.424" x2="398.188" y2="177.993"/>
<line fill="none" stroke="#000000" stroke-width="0.25" stroke-miterlimit="10" x1="287.369" y1="183.189" x2="323.674" y2="183.189"/>
<line fill="none" stroke="#000000" stroke-width="0.25" stroke-miterlimit="10" x1="324.09" y1="303.16" x2="287.647" y2="303.16"/>
<line fill="none" stroke="#000000" stroke-width="0.25" stroke-miterlimit="10" x1="431.374" y1="303.16" x2="397.466" y2="303.16"/>
<line fill="none" stroke="#000000" stroke-width="0.25" stroke-miterlimit="10" x1="397.384" y1="183.189" x2="431.456" y2="183.189"/>
<line fill="none" stroke="#000000" stroke-width="0.25" stroke-miterlimit="10" x1="325.257" y1="240.375" x2="346.334" y2="204.251"/>
<line fill="none" stroke="#000000" stroke-width="0.25" stroke-miterlimit="10" x1="325.257" y1="243.514" x2="346.334" y2="279.639"/>
<line fill="none" stroke="#000000" stroke-width="0.25" stroke-miterlimit="10" x1="396.057" y1="240.458" x2="374.98" y2="204.334"/>
<line fill="none" stroke="#000000" stroke-width="0.25" stroke-miterlimit="10" x1="396.057" y1="243.597" x2="374.98" y2="279.723"/>
<line fill="none" stroke="#000000" stroke-width="0.25" stroke-miterlimit="10" x1="346.334" y1="205.272" x2="346.334" y2="177.993"/>
<line fill="none" stroke="#000000" stroke-width="0.25" stroke-miterlimit="10" x1="374.98" y1="205.355" x2="374.98" y2="177.993"/>
<line fill="none" stroke="#000000" stroke-width="0.25" stroke-miterlimit="10" x1="346.334" y1="279.639" x2="374.98" y2="279.639"/>
<line fill="none" stroke="#000000" stroke-width="0.25" stroke-miterlimit="10" x1="325.257" y1="240.375" x2="325.257" y2="243.514"/>
<line fill="none" stroke="#000000" stroke-width="0.25" stroke-miterlimit="10" x1="396.057" y1="240.458" x2="396.057" y2="243.597"/>
<line fill="none" stroke="#000000" stroke-width="0.25" stroke-miterlimit="10" x1="345.084" y1="204.251" x2="376.084" y2="204.251"/>
<line fill="none" stroke="#000000" stroke-width="0.25" stroke-miterlimit="10" x1="325.563" y1="243.302" x2="299.738" y2="256.399"/>
<line fill="none" stroke="#000000" stroke-width="0.25" stroke-miterlimit="10" x1="299.008" y1="228.668" x2="326.294" y2="240.862"/>
<line fill="none" stroke="#000000" stroke-width="0.25" stroke-miterlimit="10" x1="421.497" y1="229.037" x2="395.492" y2="240.659"/>
<line fill="none" stroke="#000000" stroke-width="0.25" stroke-miterlimit="10" x1="395.738" y1="243.464" x2="421.25" y2="256.402"/>
<line fill="none" stroke="#000000" stroke-width="0.25" stroke-miterlimit="10" x1="346.334" y1="278" x2="346.334" y2="309.5"/>
<line fill="none" stroke="#000000" stroke-width="0.25" stroke-miterlimit="10" x1="374.896" y1="278" x2="374.896" y2="309.5"/>
</svg>
