<?xml version="1.0" encoding="utf-8"?>
<!-- Generator: Adobe Illustrator 15.1.0, SVG Export Plug-In . SVG Version: 6.00 Build 0)  -->
<!DOCTYPE svg PUBLIC "-//W3C//DTD SVG 1.1//EN" "http://www.w3.org/Graphics/SVG/1.1/DTD/svg11.dtd">
<svg version="1.1" id="Livello_1" xmlns="http://www.w3.org/2000/svg" xmlns:xlink="http://www.w3.org/1999/xlink" x="0px" y="0px"
	 width="800px" height="600px" viewBox="0 0 800 600" enable-background="new 0 0 800 600" xml:space="preserve">
<line fill="none" stroke="#000000" stroke-width="0.25" stroke-miterlimit="10" x1="323.011" y1="236" x2="478.073" y2="236"/>
<line fill="none" stroke="#000000" stroke-width="0.25" stroke-miterlimit="10" x1="326" y1="369.268" x2="326" y2="229.816"/>
<line fill="none" stroke="#000000" stroke-width="0.25" stroke-miterlimit="10" x1="474.408" y1="365" x2="323.011" y2="365"/>
<line fill="none" stroke="#000000" stroke-width="0.25" stroke-miterlimit="10" x1="468.75" y1="229.816" x2="468.75" y2="369.268"/>
<line fill="none" stroke="#000000" stroke-width="0.25" stroke-miterlimit="10" x1="353.514" y1="295.508" x2="379.118" y2="251.625"/>
<line fill="none" stroke="#000000" stroke-width="0.25" stroke-miterlimit="10" x1="362.305" y1="299.013" x2="385.118" y2="338.111"/>
<line fill="none" stroke="#000000" stroke-width="0.25" stroke-miterlimit="10" x1="443.197" y1="294.847" x2="418.461" y2="252.451"/>
<line fill="none" stroke="#000000" stroke-width="0.25" stroke-miterlimit="10" x1="434.479" y1="299.714" x2="412.389" y2="337.576"/>
<line fill="none" stroke="#000000" stroke-width="0.25" stroke-miterlimit="10" x1="377.73" y1="255.792" x2="377.73" y2="234.343"/>
<line fill="none" stroke="#000000" stroke-width="0.25" stroke-miterlimit="10" x1="419.415" y1="255.891" x2="419.415" y2="234.343"/>
<line fill="none" stroke="#000000" stroke-width="0.25" stroke-miterlimit="10" x1="353.514" y1="292.42" x2="364.56" y2="298.071"/>
<line fill="none" stroke="#000000" stroke-width="0.25" stroke-miterlimit="10" x1="432.425" y1="298.236" x2="443.792" y2="292.42"/>
<line fill="none" stroke="#000000" stroke-width="0.25" stroke-miterlimit="10" x1="363.173" y1="295.508" x2="363.173" y2="302.354"/>
<line fill="none" stroke="#000000" stroke-width="0.25" stroke-miterlimit="10" x1="433.973" y1="296.139" x2="433.973" y2="301.888"/>
<line fill="none" stroke="#000000" stroke-width="0.25" stroke-miterlimit="10" x1="382.724" y1="336.625" x2="414.422" y2="336.625"/>
<line fill="none" stroke="#000000" stroke-width="0.25" stroke-miterlimit="10" x1="435.922" y1="365" x2="435.922" y2="360.146"/>
<line fill="none" stroke="#000000" stroke-width="0.25" stroke-miterlimit="10" x1="435.922" y1="360.146" x2="468.75" y2="360.146"/>
<line fill="none" stroke="#000000" stroke-width="0.25" stroke-miterlimit="10" x1="326" y1="360.146" x2="361.498" y2="360.146"/>
<line fill="none" stroke="#000000" stroke-width="0.25" stroke-miterlimit="10" x1="361.498" y1="365" x2="361.498" y2="360.146"/>
<line fill="none" stroke="#000000" stroke-width="0.25" stroke-miterlimit="10" x1="326" y1="286.169" x2="338.129" y2="286.169"/>
<line fill="none" stroke="#000000" stroke-width="0.25" stroke-miterlimit="10" x1="326" y1="313.259" x2="338.129" y2="313.259"/>
<line fill="none" stroke="#000000" stroke-width="0.25" stroke-miterlimit="10" x1="338.129" y1="286.169" x2="338.129" y2="313.259"/>
<line fill="none" stroke="#000000" stroke-width="0.25" stroke-miterlimit="10" x1="326" y1="240.175" x2="361.498" y2="240.175"/>
<line fill="none" stroke="#000000" stroke-width="0.25" stroke-miterlimit="10" x1="361.498" y1="240.175" x2="361.498" y2="236"/>
<line fill="none" stroke="#000000" stroke-width="0.25" stroke-miterlimit="10" x1="435.922" y1="236" x2="435.922" y2="240.175"/>
<line fill="none" stroke="#000000" stroke-width="0.25" stroke-miterlimit="10" x1="435.922" y1="240.175" x2="468.75" y2="240.175"/>
<line fill="none" stroke="#000000" stroke-width="0.25" stroke-miterlimit="10" x1="468.75" y1="286.169" x2="459.034" y2="286.169"/>
<line fill="none" stroke="#000000" stroke-width="0.25" stroke-miterlimit="10" x1="459.034" y1="286.169" x2="459.034" y2="313.26"/>
<line fill="none" stroke="#000000" stroke-width="0.25" stroke-miterlimit="10" x1="459.034" y1="313.26" x2="468.75" y2="313.26"/>
<line fill="none" stroke="#000000" stroke-width="0.25" stroke-miterlimit="10" x1="377" y1="254.002" x2="420.035" y2="254.085"/>
<line fill="none" stroke="#000000" stroke-width="0.25" stroke-miterlimit="10" x1="362.875" y1="297.781" x2="387.375" y2="253.125"/>
<line fill="none" stroke="#000000" stroke-width="0.25" stroke-miterlimit="10" x1="434.375" y1="298.236" x2="410.25" y2="253.125"/>
</svg>
