<?xml version="1.0" encoding="utf-8"?>
<!-- Generator: Adobe Illustrator 15.1.0, SVG Export Plug-In . SVG Version: 6.00 Build 0)  -->
<!DOCTYPE svg PUBLIC "-//W3C//DTD SVG 1.1//EN" "http://www.w3.org/Graphics/SVG/1.1/DTD/svg11.dtd">
<svg version="1.1" id="Livello_1" xmlns="http://www.w3.org/2000/svg" xmlns:xlink="http://www.w3.org/1999/xlink" x="0px" y="0px"
	 width="800px" height="600px" viewBox="0 0 800 600" enable-background="new 0 0 800 600" xml:space="preserve">
<path fill="none" stroke="#000000" stroke-width="0.25" stroke-miterlimit="10" d="M385.25,234"/>
<polyline fill="none" stroke="#000000" stroke-width="0.25" stroke-miterlimit="10" points="327,238.175 362.498,238.175 
	362.498,234 "/>
<polyline fill="none" stroke="#000000" stroke-width="0.25" stroke-miterlimit="10" points="362.498,363 362.498,358.146 
	327,358.146 "/>
<line fill="none" stroke="#000000" stroke-width="0.25" stroke-miterlimit="10" x1="436.922" y1="358.146" x2="436.922" y2="363"/>
<line fill="none" stroke="#000000" stroke-width="0.25" stroke-miterlimit="10" x1="469.75" y1="358.146" x2="436.922" y2="358.146"/>
<polyline fill="none" stroke="#000000" stroke-width="0.25" stroke-miterlimit="10" points="436.922,234 436.922,238.175 
	469.75,238.175 "/>
<path fill="none" stroke="#000000" stroke-width="0.25" stroke-miterlimit="10" d="M413.896,234"/>
<line fill="none" stroke="#000000" stroke-width="0.25" stroke-miterlimit="10" x1="364.173" y1="295.361" x2="385.25" y2="259.237"/>
<line fill="none" stroke="#000000" stroke-width="0.25" stroke-miterlimit="10" x1="434.973" y1="295.444" x2="413.896" y2="259.32"/>
<line fill="none" stroke="#000000" stroke-width="0.25" stroke-miterlimit="10" x1="385.25" y1="259.237" x2="385.25" y2="234"/>
<line fill="none" stroke="#000000" stroke-width="0.25" stroke-miterlimit="10" x1="413.896" y1="259.32" x2="413.896" y2="234"/>
<line fill="none" stroke="#000000" stroke-width="0.25" stroke-miterlimit="10" x1="385.25" y1="334.625" x2="413.896" y2="334.625"/>
<line fill="none" stroke="#000000" stroke-width="0.25" stroke-miterlimit="10" x1="364.173" y1="295.361" x2="364.173" y2="298.5"/>
<line fill="none" stroke="#000000" stroke-width="0.25" stroke-miterlimit="10" x1="434.973" y1="295.444" x2="434.973" y2="298.583"/>
<line fill="none" stroke="#000000" stroke-width="0.25" stroke-miterlimit="10" x1="364.173" y1="298.5" x2="355.901" y2="302.732"/>
<line fill="none" stroke="#000000" stroke-width="0.25" stroke-miterlimit="10" x1="443.244" y1="302.814" x2="420.415" y2="341.942"/>
<line fill="none" stroke="#000000" stroke-width="0.25" stroke-miterlimit="10" x1="413.896" y1="334.708" x2="420.415" y2="341.942"/>
<line fill="none" stroke="#000000" stroke-width="0.25" stroke-miterlimit="10" x1="434.973" y1="298.583" x2="443.244" y2="302.814"/>
<line fill="none" stroke="#000000" stroke-width="0.25" stroke-miterlimit="10" x1="355.901" y1="302.732" x2="378.73" y2="341.942"/>
<line fill="none" stroke="#000000" stroke-width="0.25" stroke-miterlimit="10" x1="385.25" y1="334.625" x2="378.73" y2="341.942"/>
<line fill="none" stroke="#000000" stroke-width="0.25" stroke-miterlimit="10" x1="324.971" y1="234" x2="477.75" y2="234"/>
<line fill="none" stroke="#000000" stroke-width="0.25" stroke-miterlimit="10" x1="322.5" y1="363" x2="473.25" y2="363"/>
<line fill="none" stroke="#000000" stroke-width="0.25" stroke-miterlimit="10" x1="327" y1="231.75" x2="327" y2="367.75"/>
<line fill="none" stroke="#000000" stroke-width="0.25" stroke-miterlimit="10" x1="469.75" y1="231.75" x2="469.75" y2="367.75"/>
<line fill="none" stroke="#000000" stroke-width="0.25" stroke-miterlimit="10" x1="385.25" y1="259.237" x2="413.896" y2="259.32"/>
<line fill="none" stroke="#000000" stroke-width="0.25" stroke-miterlimit="10" x1="364.173" y1="298.5" x2="385.25" y2="334.625"/>
<line fill="none" stroke="#000000" stroke-width="0.25" stroke-miterlimit="10" x1="434.973" y1="298.583" x2="413.896" y2="334.625"/>
</svg>
