<?xml version="1.0" encoding="utf-8"?>
<!-- Generator: Adobe Illustrator 15.1.0, SVG Export Plug-In . SVG Version: 6.00 Build 0)  -->
<!DOCTYPE svg PUBLIC "-//W3C//DTD SVG 1.1//EN" "http://www.w3.org/Graphics/SVG/1.1/DTD/svg11.dtd">
<svg version="1.1" id="Livello_1" xmlns="http://www.w3.org/2000/svg" xmlns:xlink="http://www.w3.org/1999/xlink" x="0px" y="0px"
	 width="800px" height="600px" viewBox="0 0 800 600" enable-background="new 0 0 800 600" xml:space="preserve">
<line fill="none" stroke="#000000" stroke-width="0.25" stroke-miterlimit="10" x1="329" y1="234" x2="475" y2="234"/>
<polyline fill="none" stroke="#000000" stroke-width="0.25" stroke-miterlimit="10" points="329,238.175 364.498,238.175 
	364.498,234 "/>
<line fill="none" stroke="#000000" stroke-width="0.25" stroke-miterlimit="10" x1="329" y1="365.75" x2="329" y2="233.068"/>
<polyline fill="none" stroke="#000000" stroke-width="0.25" stroke-miterlimit="10" points="364.498,363 364.498,358.146 
	329,358.146 "/>
<line fill="none" stroke="#000000" stroke-width="0.25" stroke-miterlimit="10" x1="475" y1="363" x2="325.5" y2="363"/>
<line fill="none" stroke="#000000" stroke-width="0.25" stroke-miterlimit="10" x1="438.922" y1="358.146" x2="438.922" y2="363"/>
<line fill="none" stroke="#000000" stroke-width="0.25" stroke-miterlimit="10" x1="471.75" y1="358.146" x2="438.922" y2="358.146"/>
<line fill="none" stroke="#000000" stroke-width="0.25" stroke-miterlimit="10" x1="471.75" y1="232.75" x2="471.75" y2="364.48"/>
<polyline fill="none" stroke="#000000" stroke-width="0.25" stroke-miterlimit="10" points="438.922,234 438.922,238.175 
	471.75,238.175 "/>
<line fill="none" stroke="#000000" stroke-width="0.25" stroke-miterlimit="10" x1="366.173" y1="295.361" x2="387.25" y2="259.237"/>
<line fill="none" stroke="#000000" stroke-width="0.25" stroke-miterlimit="10" x1="366.173" y1="298.5" x2="387.25" y2="334.625"/>
<line fill="none" stroke="#000000" stroke-width="0.25" stroke-miterlimit="10" x1="436.973" y1="295.444" x2="415.896" y2="259.32"/>
<line fill="none" stroke="#000000" stroke-width="0.25" stroke-miterlimit="10" x1="436.973" y1="298.583" x2="415.896" y2="334.708"/>
<line fill="none" stroke="#000000" stroke-width="0.25" stroke-miterlimit="10" x1="387.25" y1="259.237" x2="387.25" y2="234"/>
<line fill="none" stroke="#000000" stroke-width="0.25" stroke-miterlimit="10" x1="415.896" y1="259.32" x2="415.896" y2="234"/>
<line fill="none" stroke="#000000" stroke-width="0.25" stroke-miterlimit="10" x1="387.25" y1="334.625" x2="415.896" y2="334.625"/>
<line fill="none" stroke="#000000" stroke-width="0.25" stroke-miterlimit="10" x1="366.173" y1="295.361" x2="366.173" y2="298.5"/>
<line fill="none" stroke="#000000" stroke-width="0.25" stroke-miterlimit="10" x1="436.973" y1="295.444" x2="436.973" y2="298.583"/>
<line fill="none" stroke="#000000" stroke-width="0.25" stroke-miterlimit="10" x1="386" y1="259.237" x2="417" y2="259.237"/>
</svg>
